<svg width="168" height="41" viewBox="0 0 168 41" fill="none" xmlns="http://www.w3.org/2000/svg">
<path d="M111.279 5.46289H106.599V10.111H111.279V5.46289Z" fill="#E93750"/>
<path d="M115.959 0.833252H111.279V5.4814H115.959V0.833252Z" fill="#E93750"/>
<path d="M125.301 5.46288V0.833252H120.621V5.46288H115.959V10.111H111.279V14.7592H115.959V19.3888H120.621V14.7592H125.301V10.111H129.981V5.46288H125.301Z" fill="#E93750"/>
<path d="M0 0.740723C1.3798 0.740723 2.7596 0.740723 4.1394 0.740723C5.5192 0.740723 6.899 0.740723 8.2788 0.740723C9.75183 0.740723 11.0757 0.944426 12.2131 1.35183C13.3505 1.75924 14.2455 2.44443 14.8981 3.38887C15.5507 4.33332 15.8863 5.59258 15.8863 7.16665C15.8863 8.62961 15.4761 9.77776 14.6557 10.5926C13.8353 11.4074 12.7538 11.9444 11.3927 12.2222L16.9305 19.4444H10.9265L5.2768 12.3518V19.4444H0V0.740723ZM5.2768 5.05554V9.35184H7.79401C8.50255 9.35184 9.11787 9.22221 9.63996 8.94443C10.162 8.66665 10.4231 8.09258 10.4231 7.18517C10.4231 6.29628 10.162 5.70369 9.63996 5.44443C9.11787 5.18517 8.50255 5.05554 7.79401 5.05554H5.2768Z" fill="#252220"/>
<path d="M19.3918 0.740723C21.7785 0.740723 24.1652 0.740723 26.5519 0.740723C28.9386 0.740723 31.3253 0.740723 33.7119 0.740723V5.03702H24.6687V7.85183H32.5745V12.1481H24.6687V14.9629H33.7119V19.4444C31.3253 19.4444 28.9386 19.4444 26.5519 19.4444C24.1652 19.4444 21.7785 19.4444 19.3918 19.4444V0.740723Z" fill="#252220"/>
<path d="M35.5952 0.740723H52.1715V5.2222H46.5217V19.4444H41.2449V5.24072H35.5952V0.740723Z" fill="#252220"/>
<path d="M54.6139 0.740723C55.9937 0.740723 57.3735 0.740723 58.7533 0.740723C60.1331 0.740723 61.5129 0.740723 62.8927 0.740723C64.3657 0.740723 65.6896 0.944426 66.827 1.35183C67.9644 1.75924 68.8594 2.44443 69.512 3.38887C70.1646 4.33332 70.5002 5.59258 70.5002 7.16665C70.5002 8.62961 70.09 9.77776 69.2696 10.5926C68.4492 11.4074 67.3677 11.9444 66.0065 12.2222L71.5444 19.4444H65.5217L59.872 12.3333V19.4444H54.5952V0.740723H54.6139ZM59.8907 5.05554V9.35184H62.4079C63.1164 9.35184 63.7317 9.22221 64.2538 8.94443C64.7759 8.66665 65.0369 8.09258 65.0369 7.18517C65.0369 6.29628 64.7759 5.70369 64.2538 5.44443C63.7317 5.18517 63.1164 5.05554 62.4079 5.05554H59.8907Z" fill="#252220"/>
<path d="M74.6769 5.01852C75.4973 3.5 76.672 2.27778 78.2197 1.37037C79.7673 0.462963 81.6319 0 83.8134 0C85.995 0 87.8596 0.462963 89.4072 1.37037C90.9548 2.27778 92.1295 3.5 92.9499 5.01852C93.7704 6.53704 94.1806 8.24074 94.1806 10.1111C94.1806 11.9815 93.7704 13.6852 92.9499 15.2037C92.1295 16.7222 90.9548 17.9444 89.4072 18.8519C87.8596 19.7593 85.995 20.2222 83.8134 20.2222C81.6319 20.2222 79.7673 19.7593 78.2197 18.8519C76.672 17.9444 75.4973 16.7222 74.6769 15.2037C73.8565 13.6852 73.4463 11.9815 73.4463 10.1111C73.4463 8.22222 73.8565 6.53704 74.6769 5.01852ZM79.6367 13.0556C80.1215 13.8519 80.7555 14.463 81.5013 14.8889C82.2472 15.3148 83.0117 15.5185 83.7948 15.5185C84.5779 15.5185 85.3424 15.3148 86.0882 14.8889C86.8341 14.463 87.468 13.8519 87.9528 13.0556C88.4376 12.2593 88.68 11.2778 88.68 10.0926C88.68 8.92593 88.4376 7.94444 87.9528 7.12963C87.468 6.33333 86.8341 5.72222 86.0882 5.2963C85.3424 4.87037 84.5779 4.66667 83.7948 4.66667C83.0117 4.66667 82.2472 4.87037 81.5013 5.2963C80.7555 5.72222 80.1215 6.33333 79.6367 7.12963C79.152 7.92593 78.9096 8.90741 78.9096 10.0926C78.9096 11.2778 79.152 12.2593 79.6367 13.0556Z" fill="#252220"/>
<path d="M96.9775 0.740723H102.254V14.9629H111.298V19.4444C108.911 19.4444 106.524 19.4444 104.138 19.4444C101.751 19.4444 99.3642 19.4444 96.9775 19.4444V0.740723Z" fill="#252220"/>
<path d="M142.38 19.8333H136.358L128.825 1.12964H134.474L139.378 14.6296L144.282 1.12964H149.913L142.38 19.8333Z" fill="#252220"/>
<path d="M151.983 1.12964C154.37 1.12964 156.756 1.12964 159.143 1.12964C161.53 1.12964 163.916 1.12964 166.303 1.12964V5.42593H157.26V8.24075H165.166V12.537H157.26V15.3519H166.303V19.8333C163.916 19.8333 161.53 19.8333 159.143 19.8333C156.756 19.8333 154.37 19.8333 151.983 19.8333V1.12964Z" fill="#252220"/>
<path d="M143.742 20.7407C143.779 20.7407 143.779 20.7778 143.779 20.8704C143.779 20.9259 143.723 21.0185 143.63 21.1296C143.518 21.2407 143.406 21.3889 143.275 21.5185C143.145 21.6667 143.014 21.7963 142.884 21.9445C142.753 22.0741 142.66 22.1852 142.604 22.2778L142.474 22.463C141.728 23.3148 141.15 24.1667 140.702 25.0185C140.59 25.2222 140.479 25.4815 140.385 25.7778C140.292 26.0741 140.218 26.3519 140.143 26.6296C140.068 26.9074 139.994 27.2408 139.901 27.6296C139.584 27.6296 139.323 27.4445 139.117 27.0926C138.931 26.7408 138.838 26.4259 138.838 26.1667C138.838 26.0185 138.95 25.7037 139.173 25.2037C139.397 24.7037 139.509 24.1111 139.509 23.4445C139.509 23.1296 139.434 22.8704 139.304 22.6667C139.173 22.4815 138.968 22.3889 138.707 22.3889C138.409 22.3889 138.129 22.463 137.868 22.6111C137.16 22.9445 136.47 23.3704 135.817 23.8889C135.164 24.4259 134.568 25 134.027 25.6296C133.486 26.2593 133.002 26.9445 132.591 27.6852C132.181 28.4259 131.864 29.1482 131.659 29.8889C131.771 30.1482 132.051 30.2778 132.461 30.2778C132.759 30.2778 133.039 30.2037 133.3 30.0556C133.561 29.9074 133.859 29.7408 134.195 29.5741C134.307 29.5185 134.475 29.4074 134.698 29.2593C134.922 29.1111 135.183 28.9815 135.481 28.8333C135.78 28.7037 136.097 28.5926 136.414 28.4815C136.731 28.3704 137.066 28.3333 137.383 28.3333C137.887 28.3333 138.278 28.4815 138.558 28.7963C138.838 29.1111 138.987 29.5556 138.987 30.1482C138.987 30.963 138.726 31.7222 138.222 32.4259C137.719 33.1111 137.104 33.7222 136.395 34.2408C135.687 34.7593 134.941 35.1482 134.176 35.4259C133.412 35.7037 132.759 35.8519 132.218 35.8519C131.361 35.8519 130.578 35.6667 129.888 35.2963C129.198 34.9259 128.844 34.2593 128.844 33.2963C128.844 33.1852 128.862 33.0371 128.881 32.8704C128.918 32.7037 128.993 32.6296 129.105 32.6296C129.216 32.6296 129.384 32.7037 129.589 32.8519C129.794 33 130.055 33.1667 130.372 33.3333C130.689 33.5185 131.044 33.6667 131.435 33.8148C131.827 33.963 132.274 34.0371 132.741 34.0371C133.356 34.0371 133.897 33.9074 134.344 33.6667C134.792 33.4259 135.164 33.1111 135.481 32.7408C135.798 32.3704 136.022 31.963 136.171 31.5185C136.321 31.0741 136.395 30.6667 136.395 30.2778C136.395 30.1296 136.376 30.0371 136.321 30.0185C136.283 29.9815 136.246 29.9815 136.209 29.9815C136.059 29.9815 135.91 30.037 135.743 30.1667C135.575 30.2778 135.426 30.3889 135.276 30.4815C134.512 30.8889 133.859 31.2408 133.319 31.5C132.778 31.7593 132.144 31.8889 131.417 31.8889C130.82 31.8889 130.372 31.7222 130.037 31.3889C129.701 31.0556 129.552 30.6111 129.552 30.0926C129.552 29.5556 129.664 29 129.888 28.4074C130.111 27.8148 130.391 27.2408 130.745 26.6667C131.1 26.0926 131.51 25.537 131.976 25.0185C132.442 24.4815 132.908 24 133.412 23.5556C133.71 23.2963 134.102 22.9815 134.568 22.6482C135.034 22.3148 135.537 22 136.078 21.7037C136.619 21.4074 137.141 21.1667 137.682 20.9445C138.222 20.7407 138.726 20.6296 139.192 20.6296C140.05 20.6296 140.665 21.0185 141.019 21.7778C141.224 21.537 141.448 21.2963 141.672 21.0556C141.896 20.8148 142.175 20.6852 142.492 20.6852C142.735 20.6852 142.958 20.6852 143.182 20.6852C143.369 20.6482 143.574 20.6852 143.742 20.7407Z" fill="#252220"/>
<path d="M149.578 31.1297C149.671 31.1853 149.708 31.2593 149.708 31.3519L149.522 32.0927C149.522 32.1482 149.503 32.1853 149.485 32.1853C147.974 34.0556 146.762 35.0001 145.867 35.0001C145.494 35.0001 145.177 34.8519 144.935 34.5371C144.693 34.2408 144.562 33.8334 144.562 33.3334C144.562 32.6852 144.711 32.0186 144.991 31.3334C145.289 30.6297 145.569 30.0556 145.867 29.5927C145.905 29.5001 145.961 29.389 146.091 29.2408C146.203 29.0927 146.315 28.9445 146.445 28.7593C146.557 28.5927 146.669 28.4075 146.744 28.2408C146.837 28.0741 146.874 27.926 146.874 27.7964C146.874 27.5927 146.725 27.5001 146.427 27.5001C145.867 27.5001 145.327 27.6853 144.804 28.0741C144.282 28.4445 143.854 28.7964 143.499 29.1297C142.94 30.0927 142.492 30.9445 142.175 31.6853C141.858 32.426 141.616 33.0371 141.467 33.5371C141.318 34.0371 141.206 34.5371 141.113 35.0556C141.113 35.2408 141.001 35.3149 140.758 35.3149C140.553 35.3149 140.348 35.3149 140.162 35.2964C139.975 35.2778 139.789 35.2408 139.621 35.1667C139.453 35.0927 139.341 34.963 139.248 34.7964C139.155 34.6112 139.117 34.3704 139.117 34.0371C139.117 33.426 139.341 32.5741 139.789 31.5186C139.994 31.0186 140.329 30.4075 140.758 29.6667C141.206 28.926 141.691 28.1482 142.25 27.3334C142.791 26.5186 143.35 25.6852 143.909 24.889C144.469 24.0741 144.991 23.3519 145.494 22.7038C145.979 22.0556 146.371 21.5371 146.669 21.1297C146.967 20.7408 147.135 20.5186 147.154 20.4815L147.247 20.4445C147.284 20.4075 147.303 20.4075 147.34 20.4075C147.695 20.4075 147.974 20.463 148.179 20.5556C148.384 20.6667 148.496 20.8704 148.496 21.2038C148.496 21.4445 148.366 21.7964 148.105 22.2408C147.844 22.7038 147.527 23.2038 147.154 23.7223C146.781 24.2593 146.389 24.8149 145.96 25.389C145.532 25.963 145.177 26.5001 144.879 26.963C145.289 26.6482 145.737 26.389 146.184 26.1852C146.632 26.0001 147.079 25.9075 147.527 25.9075C148.086 25.9075 148.515 26.0186 148.776 26.2593C149.037 26.5001 149.186 26.7778 149.186 27.1297C149.186 27.5741 149.056 28.0556 148.776 28.5741C148.496 29.0927 148.217 29.6297 147.9 30.1482C147.583 30.6667 147.303 31.1852 147.042 31.7038C146.781 32.2223 146.65 32.6852 146.65 33.0927C146.65 33.2593 146.688 33.3519 146.781 33.3519C146.874 33.3519 147.042 33.2408 147.322 33.0001C147.583 32.7593 147.862 32.5186 148.161 32.2223C148.459 31.9445 148.739 31.6852 149.018 31.463C149.242 31.2408 149.447 31.1297 149.578 31.1297Z" fill="#252220"/>
<path d="M155.824 25.8149C156.421 25.8149 156.868 26.0372 157.204 26.5001C157.521 26.9631 157.726 27.4631 157.782 28.0186C157.782 28.9816 157.633 29.9075 157.316 30.7964C156.999 31.6853 156.589 32.4446 156.067 33.1112C155.544 33.7779 154.966 34.2964 154.314 34.6853C153.661 35.0742 152.99 35.2594 152.319 35.2594C151.517 35.2594 150.883 35.0186 150.436 34.5557C149.969 34.0927 149.746 33.4631 149.746 32.7038C149.746 32.5927 149.783 32.352 149.839 32.0001C149.895 31.6483 149.988 31.2779 150.081 30.8705C150.193 30.4816 150.324 30.1298 150.473 29.8149C150.641 29.5001 150.827 29.352 151.032 29.352C151.386 29.352 151.685 29.5372 151.946 29.889C152.188 30.2409 152.319 30.5372 152.319 30.7779C152.319 31.1112 152.263 31.4261 152.132 31.7779C152.02 32.1112 151.946 32.4261 151.946 32.6853C151.983 33.0186 152.058 33.3335 152.188 33.6298C152.319 33.9446 152.505 34.0927 152.748 34.0927C153.009 34.0927 153.288 33.8705 153.568 33.4261C153.848 32.9816 154.109 32.5372 154.351 32.0557C153.531 31.9631 152.953 31.6483 152.654 31.1112C152.356 30.5742 152.207 30.0186 152.207 29.4631C152.207 29.0001 152.319 28.5372 152.524 28.0927C152.729 27.6483 153.009 27.2779 153.344 26.9446C153.68 26.6298 154.071 26.352 154.5 26.1483C154.948 25.9261 155.395 25.8149 155.824 25.8149ZM154.855 30.9816C155.209 30.1298 155.47 29.4446 155.619 28.9261C155.768 28.4075 155.843 28.0001 155.843 27.7038C155.843 27.2409 155.656 27.0001 155.302 27.0001C155.041 27.0001 154.817 27.1112 154.649 27.3335C154.482 27.5557 154.351 27.7964 154.258 28.0927C154.146 28.3705 154.071 28.6483 154.034 28.9261C153.997 29.2038 153.96 29.389 153.96 29.4816C153.96 29.8149 154.034 30.1112 154.183 30.4075C154.333 30.7038 154.556 30.889 154.855 30.9816Z" fill="#252220"/>
<path d="M165.968 25.8704C166.937 25.9815 167.441 26.5185 167.441 27.463C167.441 27.8704 167.366 28.3148 167.198 28.7778C167.03 29.2408 166.825 29.7037 166.583 30.1667C166.322 30.6296 166.079 31.037 165.8 31.4259C165.539 31.8148 165.296 32.1111 165.091 32.3519C164.476 33.0556 163.749 33.6852 162.91 34.2222C162.089 34.7593 161.101 35.037 159.982 35.037C159.33 35.037 158.863 34.8519 158.602 34.5C157.95 35.963 157.54 37.1482 157.353 38C157.167 38.8704 157.055 39.5185 156.999 39.963C156.943 40.4074 156.85 40.6852 156.756 40.7963C156.645 40.9074 156.346 40.9815 155.843 40.9815C155.6 40.9815 155.358 40.8889 155.116 40.7037C154.873 40.5185 154.743 40 154.743 39.1852C154.743 38.9445 154.78 38.6852 154.855 38.3704C154.929 38.0556 155.022 37.7222 155.134 37.3704C155.283 36.8704 155.526 36.2408 155.843 35.5C156.178 34.7408 156.551 33.963 156.98 33.1482C157.409 32.3333 157.857 31.4815 158.304 30.6296C158.77 29.7778 159.199 29 159.591 28.2963C159.982 27.5926 160.336 27.0185 160.616 26.5556C160.896 26.0926 161.082 25.8333 161.176 25.7408L161.213 25.7037C161.269 25.7037 161.325 25.6852 161.362 25.6667C161.399 25.6296 161.53 25.6296 161.735 25.6296C162.294 25.6296 162.574 25.9074 162.574 26.463C162.574 26.7778 162.499 27.1111 162.35 27.4259C162.947 26.963 163.506 26.5741 164.01 26.2963C164.55 26 165.184 25.8704 165.968 25.8704ZM163.077 31.5C163.879 30.3889 164.401 29.537 164.681 28.9815C164.942 28.4259 165.073 28.0185 165.073 27.7963C165.073 27.7408 165.054 27.6667 165.035 27.5741C164.998 27.4815 164.905 27.4445 164.718 27.4445C163.972 27.4445 163.301 27.6852 162.704 28.1482C162.089 28.6111 161.567 29.1667 161.101 29.7963C160.635 30.4259 160.243 31.0741 159.926 31.7222C159.609 32.3704 159.348 32.8889 159.162 33.2593C159.516 33.7037 159.926 33.9259 160.355 33.9259C160.672 33.9259 161.12 33.6852 161.679 33.2222C162.257 32.7593 162.723 32.1852 163.077 31.5Z" fill="#252220"/>
</svg>
