<svg width="41" height="41" viewBox="0 0 41 41" fill="none" xmlns="http://www.w3.org/2000/svg">
<g clip-path="url(#clip0_317_1858)">
<path d="M22.4397 5.32971H17.8828V9.86449H22.4397V5.32971Z" fill="#E93750"/>
<path d="M26.9966 0.812988H22.4397V5.34777H26.9966V0.812988Z" fill="#E93750"/>
<path d="M36.0923 5.3297V0.812988H31.5354V5.3297H26.9966V9.86448H22.4397V14.3993H26.9966V18.916H31.5354V14.3993H36.0923V9.86448H40.6493V5.3297H36.0923Z" fill="#E93750"/>
<path d="M1.05298 0.722656C2.39646 0.722656 3.73994 0.722656 5.08341 0.722656C6.42689 0.722656 7.77037 0.722656 9.11385 0.722656C10.5481 0.722656 11.8371 0.921392 12.9446 1.31886C14.052 1.71633 14.9235 2.38481 15.5589 3.30622C16.1943 4.22762 16.5211 5.45617 16.5211 6.99185C16.5211 8.41913 16.1217 9.53928 15.3229 10.3342C14.5241 11.1292 13.4711 11.6531 12.1458 11.9241L17.5378 18.9702H11.6919L6.19088 12.0506V18.9702H1.05298V0.722656ZM6.19088 4.93223V9.12374H8.64182C9.33171 9.12374 9.93083 8.99727 10.4392 8.72627C10.9475 8.45527 11.2017 7.8952 11.2017 7.00992C11.2017 6.14271 10.9475 5.56457 10.4392 5.31164C9.93083 5.0587 9.33171 4.93223 8.64182 4.93223H6.19088Z" class="letter"/>
<path d="M15.3411 19.7651C15.3774 19.7651 15.3774 19.8013 15.3774 19.8916C15.3774 19.9458 15.323 20.0361 15.2322 20.1445C15.1233 20.2529 15.0143 20.3975 14.8873 20.5239C14.7602 20.6685 14.6331 20.7949 14.506 20.9395C14.3789 21.066 14.2881 21.1744 14.2337 21.2647L14.1066 21.4454C13.3804 22.2764 12.8176 23.1075 12.3819 23.9386C12.2729 24.1373 12.164 24.3903 12.0732 24.6793C11.9824 24.9684 11.9098 25.2394 11.8372 25.5104C11.7646 25.7814 11.692 26.1066 11.6012 26.486C11.2926 26.486 11.0384 26.3053 10.8387 25.9621C10.6571 25.6188 10.5663 25.3117 10.5663 25.0587C10.5663 24.9142 10.6753 24.6071 10.8931 24.1192C11.111 23.6314 11.2199 23.0533 11.2199 22.4029C11.2199 22.0958 11.1473 21.8428 11.0202 21.6441C10.8931 21.4634 10.6934 21.3731 10.4393 21.3731C10.1488 21.3731 9.87645 21.4454 9.62228 21.5899C8.93239 21.9151 8.26065 22.3306 7.62522 22.8365C6.98979 23.3604 6.40882 23.9205 5.88233 24.5348C5.35583 25.1491 4.88379 25.8175 4.48438 26.5402C4.08497 27.2629 3.77633 27.9675 3.57663 28.6902C3.68556 28.9431 3.95788 29.0696 4.3573 29.0696C4.64778 29.0696 4.9201 28.9973 5.17428 28.8528C5.42845 28.7082 5.71893 28.5456 6.04572 28.383C6.15465 28.3288 6.31805 28.2204 6.53591 28.0759C6.75377 27.9314 7.00794 27.8049 7.29843 27.6604C7.58891 27.5339 7.89754 27.4255 8.20618 27.3171C8.51482 27.2087 8.84161 27.1725 9.15025 27.1725C9.64043 27.1725 10.0217 27.3171 10.294 27.6242C10.5663 27.9314 10.7116 28.365 10.7116 28.9431C10.7116 29.738 10.4574 30.4788 9.96723 31.1653C9.47704 31.8338 8.87792 32.43 8.18802 32.9359C7.49813 33.4417 6.77193 33.8211 6.02757 34.0921C5.28321 34.3632 4.64778 34.5077 4.12128 34.5077C3.28615 34.5077 2.52363 34.327 1.85189 33.9657C1.18015 33.6043 0.835205 32.9539 0.835205 32.0145C0.835205 31.9061 0.85336 31.7615 0.871515 31.5989C0.907826 31.4363 0.980446 31.3641 1.08938 31.3641C1.19831 31.3641 1.3617 31.4363 1.56141 31.5809C1.76112 31.7254 2.01529 31.888 2.32392 32.0506C2.63256 32.2313 2.97751 32.3758 3.35877 32.5203C3.74002 32.6649 4.17575 32.7371 4.62962 32.7371C5.22874 32.7371 5.75524 32.6107 6.19096 32.3758C6.62669 32.1409 6.98979 31.8338 7.29843 31.4725C7.60706 31.1111 7.82492 30.7136 7.97016 30.28C8.11541 29.8464 8.18802 29.449 8.18802 29.0696C8.18802 28.925 8.16987 28.8347 8.11541 28.8166C8.07909 28.7805 8.04278 28.7805 8.00647 28.7805C7.86123 28.7805 7.71599 28.8347 7.5526 28.9612C7.3892 29.0696 7.24396 29.178 7.09872 29.2683C6.35436 29.6658 5.71893 30.009 5.19243 30.262C4.66593 30.5149 4.04866 30.6414 3.34061 30.6414C2.75965 30.6414 2.32392 30.4788 1.99713 30.1536C1.67034 29.8284 1.5251 29.3948 1.5251 28.8889C1.5251 28.365 1.63403 27.823 1.85189 27.2448C2.06975 26.6667 2.34208 26.1066 2.68703 25.5465C3.03197 24.9865 3.43139 24.4445 3.88526 23.9386C4.33914 23.4146 4.79302 22.9449 5.28321 22.5113C5.57369 22.2584 5.95495 21.9512 6.40882 21.626C6.8627 21.3008 7.35289 20.9937 7.87939 20.7046C8.40589 20.4155 8.91423 20.1807 9.44073 19.9639C9.96723 19.7651 10.4574 19.6567 10.9113 19.6567C11.7464 19.6567 12.3455 20.0361 12.6905 20.7769C12.8902 20.542 13.1081 20.3071 13.3259 20.0723C13.5438 19.8374 13.8161 19.7109 14.1247 19.7109C14.3608 19.7109 14.5786 19.7109 14.7965 19.7109C14.978 19.6929 15.1777 19.7109 15.3411 19.7651Z" class="letter"/>
<path d="M21.0056 29.9006C21.0963 29.9548 21.1327 30.0271 21.1327 30.1174L20.9511 30.8401C20.9511 30.8943 20.9329 30.9305 20.9148 30.9305C19.4442 32.7552 18.2642 33.6766 17.3927 33.6766C17.0296 33.6766 16.721 33.5321 16.485 33.2249C16.2489 32.9359 16.1218 32.5384 16.1218 32.0506C16.1218 31.4183 16.2671 30.7679 16.5394 30.0994C16.8299 29.4128 17.1022 28.8528 17.3927 28.4011C17.429 28.3108 17.4835 28.2024 17.6106 28.0578C17.7195 27.9133 17.8284 27.7688 17.9555 27.5881C18.0644 27.4255 18.1734 27.2448 18.246 27.0822C18.3368 26.9196 18.3731 26.7751 18.3731 26.6486C18.3731 26.4499 18.2278 26.3595 17.9374 26.3595C17.3927 26.3595 16.8662 26.5402 16.3579 26.9196C15.8495 27.281 15.432 27.6242 15.087 27.9494C14.5424 28.8889 14.1066 29.72 13.798 30.4427C13.4894 31.1653 13.2533 31.7615 13.1081 32.2493C12.9629 32.7371 12.8539 33.2249 12.7632 33.7308C12.7632 33.9115 12.6542 33.9838 12.4182 33.9838C12.2185 33.9838 12.0188 33.9838 11.8372 33.9657C11.6557 33.9476 11.4741 33.9115 11.3107 33.8392C11.1473 33.767 11.0384 33.6405 10.9476 33.4779C10.8569 33.2972 10.8206 33.0623 10.8206 32.7371C10.8206 32.1409 11.0384 31.3099 11.4741 30.2801C11.6738 29.7922 12.0006 29.196 12.4182 28.4734C12.8539 27.7507 13.326 26.9919 13.8706 26.1969C14.3971 25.402 14.9418 24.589 15.4864 23.8121C16.0311 23.0172 16.5394 22.3126 17.0296 21.6802C17.5016 21.0479 17.8829 20.542 18.1734 20.1445C18.4639 19.7651 18.6273 19.5483 18.6454 19.5122L18.7362 19.4761C18.7725 19.4399 18.7906 19.4399 18.827 19.4399C19.1719 19.4399 19.4442 19.4941 19.6439 19.5845C19.8436 19.6929 19.9526 19.8916 19.9526 20.2168C19.9526 20.4517 19.8255 20.795 19.5713 21.2286C19.3171 21.6802 19.0085 22.168 18.6454 22.6739C18.2823 23.1978 17.901 23.7399 17.4835 24.2999C17.0659 24.86 16.721 25.3839 16.4305 25.8356C16.8299 25.5285 17.2656 25.2755 17.7013 25.0768C18.1371 24.8961 18.5728 24.8058 19.0085 24.8058C19.5532 24.8058 19.9707 24.9142 20.2249 25.1491C20.4791 25.3839 20.6243 25.6549 20.6243 25.9982C20.6243 26.4318 20.4972 26.9015 20.2249 27.4074C19.9526 27.9133 19.6802 28.4372 19.3716 28.9431C19.063 29.449 18.7906 29.9548 18.5365 30.4607C18.2823 30.9666 18.1552 31.4183 18.1552 31.8157C18.1552 31.9783 18.1915 32.0687 18.2823 32.0687C18.3731 32.0687 18.5365 31.9603 18.8088 31.7254C19.063 31.4905 19.3353 31.2557 19.6258 30.9666C19.9163 30.6956 20.1886 30.4427 20.4609 30.2259C20.6969 30.009 20.8966 29.9006 21.0056 29.9006Z" class="letter"/>
<path d="M27.1056 24.7155C27.6865 24.7155 28.1223 24.9323 28.4491 25.3839C28.7577 25.8356 28.9574 26.3234 29.0119 26.8654C29.0119 27.8049 28.8666 28.7082 28.558 29.5754C28.2494 30.4426 27.8499 31.1834 27.3416 31.8338C26.8333 32.4842 26.2704 32.9901 25.635 33.3695C24.9996 33.7489 24.346 33.9296 23.6924 33.9296C22.9117 33.9296 22.2945 33.6947 21.8588 33.243C21.4049 32.7913 21.187 32.1771 21.187 31.4363C21.187 31.3279 21.2233 31.0931 21.2778 30.7498C21.3323 30.4065 21.423 30.0452 21.5138 29.6477C21.6227 29.2683 21.7498 28.925 21.8951 28.6179C22.0585 28.3108 22.24 28.1662 22.4397 28.1662C22.7847 28.1662 23.0751 28.3469 23.3293 28.6902C23.5653 29.0334 23.6924 29.3225 23.6924 29.5574C23.6924 29.8826 23.638 30.1897 23.5109 30.533C23.4019 30.8582 23.3293 31.1653 23.3293 31.4183C23.3656 31.7435 23.4382 32.0506 23.5653 32.3397C23.6924 32.6468 23.874 32.7913 24.11 32.7913C24.3642 32.7913 24.6365 32.5745 24.9088 32.1409C25.1811 31.7073 25.4353 31.2737 25.6713 30.804C24.8725 30.7136 24.3097 30.4065 24.0192 29.8826C23.7287 29.3586 23.5835 28.8166 23.5835 28.2746C23.5835 27.823 23.6924 27.3713 23.8921 26.9377C24.0918 26.5041 24.3642 26.1427 24.6909 25.8175C25.0177 25.5104 25.399 25.2394 25.8166 25.0407C26.2523 24.8239 26.6699 24.7155 27.1056 24.7155ZM26.1615 29.7561C26.5065 28.925 26.7606 28.2566 26.9059 27.7507C27.0511 27.2448 27.1237 26.8473 27.1237 26.5583C27.1237 26.1066 26.9422 25.8717 26.5972 25.8717C26.3431 25.8717 26.1252 25.9801 25.9618 26.1969C25.7984 26.4137 25.6713 26.6486 25.5805 26.9377C25.4716 27.2087 25.399 27.4797 25.3627 27.7507C25.3264 28.0217 25.2901 28.2024 25.2901 28.2927C25.2901 28.6179 25.3627 28.907 25.5079 29.196C25.6532 29.4851 25.871 29.6658 26.1615 29.7561Z" class="letter"/>
<path d="M36.9638 24.7697C37.9079 24.8781 38.398 25.402 38.398 26.3234C38.398 26.7209 38.3254 27.1545 38.162 27.6062C37.9986 28.0578 37.7989 28.5095 37.5629 28.9612C37.3087 29.4128 37.0727 29.8103 36.8004 30.1897C36.5462 30.5691 36.3102 30.8582 36.1105 31.0931C35.5114 31.7796 34.8033 32.3939 33.9864 32.9178C33.1875 33.4417 32.2253 33.7127 31.136 33.7127C30.5006 33.7127 30.0467 33.5321 29.7925 33.1888C29.1571 34.6161 28.7577 35.7724 28.5761 36.6034C28.3946 37.4526 28.2857 38.0849 28.2312 38.5185C28.1767 38.9521 28.086 39.2231 27.9952 39.3315C27.8862 39.4399 27.5958 39.5122 27.1056 39.5122C26.8696 39.5122 26.6335 39.4219 26.3975 39.2412C26.1615 39.0605 26.0344 38.5547 26.0344 37.7597C26.0344 37.5249 26.0707 37.2719 26.1434 36.9648C26.216 36.6576 26.3068 36.3324 26.4157 35.9892C26.5609 35.5014 26.7969 34.8871 27.1056 34.1644C27.4324 33.4237 27.7955 32.6649 28.213 31.8699C28.6306 31.075 29.0663 30.2439 29.502 29.4128C29.9559 28.5818 30.3735 27.823 30.7547 27.1364C31.136 26.4499 31.481 25.8898 31.7533 25.4381C32.0256 24.9865 32.2072 24.7335 32.2979 24.6432L32.3342 24.6071C32.3887 24.6071 32.4432 24.589 32.4795 24.5709C32.5158 24.5348 32.6429 24.5348 32.8426 24.5348C33.3872 24.5348 33.6596 24.8058 33.6596 25.3478C33.6596 25.6549 33.5869 25.9801 33.4417 26.2873C34.0227 25.8356 34.5673 25.4562 35.0575 25.1852C35.584 24.8961 36.2194 24.7697 36.9638 24.7697ZM34.1498 30.28C34.9304 29.196 35.4388 28.365 35.7111 27.823C35.9653 27.281 36.0923 26.8835 36.0923 26.6667C36.0923 26.6125 36.0742 26.5402 36.056 26.4499C36.0197 26.3595 35.929 26.3234 35.7474 26.3234C35.0212 26.3234 34.3676 26.5583 33.7867 27.0099C33.1875 27.4616 32.6792 28.0036 32.2253 28.6179C31.7714 29.2322 31.3902 29.8645 31.0815 30.4968C30.7729 31.1292 30.5187 31.6351 30.3372 31.9964C30.6821 32.43 31.0815 32.6468 31.4991 32.6468C31.8077 32.6468 32.2435 32.4119 32.7881 31.9603C33.3691 31.4905 33.8048 30.9305 34.1498 30.28Z" class="letter"/>
</g>
<defs>
<clipPath id="clip0_317_1858">
<rect width="41" height="41" fill="white"/>
</clipPath>
</defs>
</svg>
