<?xml version="1.0" encoding="utf-8"?>
<!-- Generator: Adobe Illustrator 25.4.1, SVG Export Plug-In . SVG Version: 6.00 Build 0)  -->
<svg version="1.1" id="Warstwa_1" xmlns="http://www.w3.org/2000/svg" xmlns:xlink="http://www.w3.org/1999/xlink" x="0px" y="0px"
	 viewBox="0 0 901 221.4" style="enable-background:new 0 0 901 221.4;" xml:space="preserve">
<style type="text/css">
	.st0{fill:#D02127;}
	.st1{fill:#FFFFFF;}
</style>
<g>
	<rect x="571.7" y="29.5" class="st0" width="25.1" height="25.1"/>
	<rect x="596.8" y="4.5" class="st0" width="25.1" height="25.1"/>
	<polygon class="st0" points="672,29.5 672,4.5 646.9,4.5 646.9,29.5 621.9,29.5 621.9,54.6 596.8,54.6 596.8,79.7 621.9,79.7 
		621.9,104.7 646.9,104.7 646.9,79.7 672,79.7 672,54.6 697.1,54.6 697.1,29.5 	"/>
</g>
<g>
	<path class="st1" d="M0,4c7.4,0,14.8,0,22.2,0C29.6,4,37,4,44.4,4c7.9,0,15,1.1,21.1,3.3c6.1,2.2,10.9,5.9,14.4,11
		c3.5,5.1,5.3,11.9,5.3,20.4c0,7.9-2.2,14.1-6.6,18.5c-4.4,4.4-10.2,7.3-17.5,8.8l29.7,39H58.6L28.3,66.7V105H0V4z M28.3,27.3v23.2
		h13.5c3.8,0,7.1-0.7,9.9-2.2c2.8-1.5,4.2-4.6,4.2-9.5c0-4.8-1.4-8-4.2-9.4c-2.8-1.4-6.1-2.1-9.9-2.1H28.3z"/>
	<path class="st1" d="M104,4c12.8,0,25.6,0,38.4,0c12.8,0,25.6,0,38.4,0v23.2h-48.5v15.2h42.4v23.2h-42.4v15.2h48.5V105
		c-12.8,0-25.6,0-38.4,0c-12.8,0-25.6,0-38.4,0V4z"/>
	<path class="st1" d="M190.9,4h88.9v24.2h-30.3V105h-28.3V28.3h-30.3V4z"/>
	<path class="st1" d="M292.9,4c7.4,0,14.8,0,22.2,0c7.4,0,14.8,0,22.2,0c7.9,0,15,1.1,21.1,3.3c6.1,2.2,10.9,5.9,14.4,11
		c3.5,5.1,5.3,11.9,5.3,20.4c0,7.9-2.2,14.1-6.6,18.5c-4.4,4.4-10.2,7.3-17.5,8.8l29.7,39h-32.3l-30.3-38.4V105h-28.3V4z
		 M321.2,27.3v23.2h13.5c3.8,0,7.1-0.7,9.9-2.2c2.8-1.5,4.2-4.6,4.2-9.5c0-4.8-1.4-8-4.2-9.4c-2.8-1.4-6.1-2.1-9.9-2.1H321.2z"/>
	<path class="st1" d="M400.5,27.1c4.4-8.2,10.7-14.8,19-19.7c8.3-4.9,18.3-7.4,30-7.4c11.7,0,21.7,2.5,30,7.4
		c8.3,4.9,14.6,11.5,19,19.7c4.4,8.2,6.6,17.4,6.6,27.5c0,10.1-2.2,19.3-6.6,27.5c-4.4,8.2-10.7,14.8-19,19.7
		c-8.3,4.9-18.3,7.4-30,7.4c-11.7,0-21.7-2.5-30-7.4c-8.3-4.9-14.6-11.5-19-19.7c-4.4-8.2-6.6-17.4-6.6-27.5
		C393.9,44.4,396.1,35.3,400.5,27.1z M427.1,70.5c2.6,4.3,6,7.6,10,9.9c4,2.3,8.1,3.4,12.3,3.4c4.2,0,8.3-1.1,12.3-3.4
		c4-2.3,7.4-5.6,10-9.9c2.6-4.3,3.9-9.6,3.9-16c0-6.3-1.3-11.6-3.9-16c-2.6-4.3-6-7.6-10-9.9c-4-2.3-8.1-3.4-12.3-3.4
		c-4.2,0-8.3,1.1-12.3,3.4c-4,2.3-7.4,5.6-10,9.9c-2.6,4.3-3.9,9.6-3.9,16C423.2,60.9,424.5,66.2,427.1,70.5z"/>
	<path class="st1" d="M520.1,4h28.3v76.8h48.5V105c-12.8,0-25.6,0-38.4,0c-12.8,0-25.6,0-38.4,0V4z"/>
</g>
<g>
	<path class="st1" d="M763.6,107.1h-32.3l-40.4-101h30.3L747.5,79l26.3-72.9H804L763.6,107.1z"/>
	<path class="st1" d="M815.1,6.1c12.8,0,25.6,0,38.4,0c12.8,0,25.6,0,38.4,0v23.2h-48.5v15.2h42.4v23.2h-42.4v15.2h48.5v24.2
		c-12.8,0-25.6,0-38.4,0c-12.8,0-25.6,0-38.4,0V6.1z"/>
</g>
<g>
	<path class="st1" d="M770.9,112c0.2,0,0.2,0.2,0.2,0.7c0,0.3-0.3,0.8-0.8,1.4c-0.6,0.6-1.2,1.4-1.9,2.1c-0.7,0.8-1.4,1.5-2.1,2.3
		c-0.7,0.7-1.2,1.3-1.5,1.8l-0.7,1c-4,4.6-7.1,9.2-9.5,13.8c-0.6,1.1-1.2,2.5-1.7,4.1c-0.5,1.6-0.9,3.1-1.3,4.6
		c-0.4,1.5-0.8,3.3-1.3,5.4c-1.7,0-3.1-1-4.2-2.9c-1-1.9-1.5-3.6-1.5-5c0-0.8,0.6-2.5,1.8-5.2c1.2-2.7,1.8-5.9,1.8-9.5
		c0-1.7-0.4-3.1-1.1-4.2c-0.7-1-1.8-1.5-3.2-1.5c-1.6,0-3.1,0.4-4.5,1.2c-3.8,1.8-7.5,4.1-11,6.9c-3.5,2.9-6.7,6-9.6,9.4
		c-2.9,3.4-5.5,7.1-7.7,11.1c-2.2,4-3.9,7.9-5,11.9c0.6,1.4,2.1,2.1,4.3,2.1c1.6,0,3.1-0.4,4.5-1.2c1.4-0.8,3-1.7,4.8-2.6
		c0.6-0.3,1.5-0.9,2.7-1.7c1.2-0.8,2.6-1.5,4.2-2.3c1.6-0.7,3.3-1.3,5-1.9c1.7-0.6,3.5-0.8,5.2-0.8c2.7,0,4.8,0.8,6.3,2.5
		c1.5,1.7,2.3,4.1,2.3,7.3c0,4.4-1.4,8.5-4.1,12.3c-2.7,3.7-6,7-9.8,9.8c-3.8,2.8-7.8,4.9-11.9,6.4c-4.1,1.5-7.6,2.3-10.5,2.3
		c-4.6,0-8.8-1-12.5-3c-3.7-2-5.6-5.6-5.6-10.8c0-0.6,0.1-1.4,0.2-2.3c0.2-0.9,0.6-1.3,1.2-1.3c0.6,0,1.5,0.4,2.6,1.2
		c1.1,0.8,2.5,1.7,4.2,2.6c1.7,1,3.6,1.8,5.7,2.6c2.1,0.8,4.5,1.2,7,1.2c3.3,0,6.2-0.7,8.6-2c2.4-1.3,4.4-3,6.1-5
		c1.7-2,2.9-4.2,3.7-6.6c0.8-2.4,1.2-4.6,1.2-6.7c0-0.8-0.1-1.3-0.4-1.4c-0.2-0.2-0.4-0.2-0.6-0.2c-0.8,0-1.6,0.3-2.5,1
		c-0.9,0.6-1.7,1.2-2.5,1.7c-4.1,2.2-7.6,4.1-10.5,5.5c-2.9,1.4-6.3,2.1-10.2,2.1c-3.2,0-5.6-0.9-7.4-2.7c-1.8-1.8-2.6-4.2-2.6-7
		c0-2.9,0.6-5.9,1.8-9.1c1.2-3.2,2.7-6.3,4.6-9.4c1.9-3.1,4.1-6.1,6.6-8.9c2.5-2.9,5-5.5,7.7-7.9c1.6-1.4,3.7-3.1,6.2-4.9
		c2.5-1.8,5.2-3.5,8.1-5.1c2.9-1.6,5.7-2.9,8.6-4.1c2.9-1.1,5.6-1.7,8.1-1.7c4.6,0,7.9,2.1,9.8,6.2c1.1-1.3,2.3-2.6,3.5-3.9
		c1.2-1.3,2.7-2,4.4-2c1.3,0,2.5,0,3.7,0C768.9,111.5,770,111.7,770.9,112z"/>
	<path class="st1" d="M802.2,168.1c0.5,0.3,0.7,0.7,0.7,1.2l-1,4c0,0.3-0.1,0.5-0.2,0.5c-8.1,10.1-14.6,15.2-19.4,15.2
		c-2,0-3.7-0.8-5-2.5c-1.3-1.6-2-3.8-2-6.5c0-3.5,0.8-7.1,2.3-10.8c1.6-3.8,3.1-6.9,4.7-9.4c0.2-0.5,0.5-1.1,1.2-1.9
		c0.6-0.8,1.2-1.6,1.9-2.6c0.6-0.9,1.2-1.9,1.6-2.8c0.5-0.9,0.7-1.7,0.7-2.4c0-1.1-0.8-1.6-2.4-1.6c-3,0-5.9,1-8.7,3.1
		c-2.8,2-5.1,3.9-7,5.7c-3,5.2-5.4,9.8-7.1,13.8c-1.7,4-3,7.3-3.8,10c-0.8,2.7-1.4,5.4-1.9,8.2c0,1-0.6,1.4-1.9,1.4
		c-1.1,0-2.2,0-3.2-0.1c-1-0.1-2-0.3-2.9-0.7c-0.9-0.4-1.5-1.1-2-2c-0.5-1-0.7-2.3-0.7-4.1c0-3.3,1.2-7.9,3.6-13.6
		c1.1-2.7,2.9-6,5.2-10c2.4-4,5-8.2,8-12.6c2.9-4.4,5.9-8.9,8.9-13.2c3-4.4,5.8-8.3,8.5-11.8c2.6-3.5,4.7-6.3,6.3-8.5
		c1.6-2.1,2.5-3.3,2.6-3.5l0.5-0.2c0.2-0.2,0.3-0.2,0.5-0.2c1.9,0,3.4,0.3,4.5,0.8c1.1,0.6,1.7,1.7,1.7,3.5c0,1.3-0.7,3.2-2.1,5.6
		c-1.4,2.5-3.1,5.2-5.1,8c-2,2.9-4.1,5.9-6.4,9c-2.3,3.1-4.2,6-5.8,8.5c2.2-1.7,4.6-3.1,7-4.2c2.4-1,4.8-1.5,7.2-1.5
		c3,0,5.3,0.6,6.7,1.9c1.4,1.3,2.2,2.8,2.2,4.7c0,2.4-0.7,5-2.2,7.8c-1.5,2.8-3,5.7-4.7,8.5c-1.7,2.8-3.2,5.6-4.6,8.4
		c-1.4,2.8-2.1,5.3-2.1,7.5c0,0.9,0.2,1.4,0.7,1.4c0.5,0,1.4-0.6,2.9-1.9c1.4-1.3,2.9-2.6,4.5-4.2c1.6-1.5,3.1-2.9,4.6-4.1
		C800.4,168.7,801.5,168.1,802.2,168.1z"/>
	<path class="st1" d="M835.7,139.4c3.2,0,5.6,1.2,7.4,3.7c1.7,2.5,2.8,5.2,3.1,8.2c0,5.2-0.8,10.2-2.5,15c-1.7,4.8-3.9,8.9-6.7,12.5
		c-2.8,3.6-5.9,6.4-9.4,8.5c-3.5,2.1-7.1,3.1-10.7,3.1c-4.3,0-7.7-1.3-10.1-3.8c-2.5-2.5-3.7-5.9-3.7-10c0-0.6,0.2-1.9,0.5-3.8
		c0.3-1.9,0.8-3.9,1.3-6.1c0.6-2.1,1.3-4,2.1-5.7c0.9-1.7,1.9-2.5,3-2.5c1.9,0,3.5,1,4.9,2.9c1.3,1.9,2,3.5,2,4.8
		c0,1.8-0.3,3.5-1,5.4c-0.6,1.8-1,3.5-1,4.9c0.2,1.8,0.6,3.5,1.3,5.1c0.7,1.7,1.7,2.5,3,2.5c1.4,0,2.9-1.2,4.4-3.6
		c1.5-2.4,2.9-4.8,4.2-7.4c-4.4-0.5-7.5-2.2-9.1-5.1c-1.6-2.9-2.4-5.9-2.4-8.9c0-2.5,0.6-5,1.7-7.4c1.1-2.4,2.6-4.4,4.4-6.2
		c1.8-1.7,3.9-3.2,6.2-4.3C831,140,833.4,139.4,835.7,139.4z M830.5,167.3c1.9-4.6,3.3-8.3,4.1-11.1c0.8-2.8,1.2-5,1.2-6.6
		c0-2.5-1-3.8-2.9-3.8c-1.4,0-2.6,0.6-3.5,1.8c-0.9,1.2-1.6,2.5-2.1,4.1c-0.6,1.5-1,3-1.2,4.5c-0.2,1.5-0.4,2.5-0.4,3
		c0,1.8,0.4,3.4,1.2,5C827.7,165.8,828.9,166.8,830.5,167.3z"/>
	<path class="st1" d="M890.1,139.7c5.2,0.6,7.9,3.5,7.9,8.6c0,2.2-0.4,4.6-1.3,7.1c-0.9,2.5-2,5-3.3,7.5c-1.4,2.5-2.7,4.7-4.2,6.8
		c-1.4,2.1-2.7,3.7-3.8,5c-3.3,3.8-7.2,7.2-11.7,10.1c-4.4,2.9-9.7,4.4-15.7,4.4c-3.5,0-6-1-7.4-2.9c-3.5,7.9-5.7,14.3-6.7,18.9
		c-1,4.7-1.6,8.2-1.9,10.6c-0.3,2.4-0.8,3.9-1.3,4.5c-0.6,0.6-2.2,1-4.9,1c-1.3,0-2.6-0.5-3.9-1.5c-1.3-1-2-3.8-2-8.2
		c0-1.3,0.2-2.7,0.6-4.4c0.4-1.7,0.9-3.5,1.5-5.4c0.8-2.7,2.1-6.1,3.8-10.1c1.8-4.1,3.8-8.3,6.1-12.7c2.3-4.4,4.7-9,7.1-13.6
		c2.5-4.6,4.8-8.8,6.9-12.6c2.1-3.8,4-6.9,5.5-9.4c1.5-2.5,2.5-3.9,3-4.4l0.2-0.2c0.3,0,0.6-0.1,0.8-0.2c0.2-0.2,0.9-0.2,2-0.2
		c3,0,4.5,1.5,4.5,4.5c0,1.7-0.4,3.5-1.2,5.2c3.2-2.5,6.2-4.6,8.9-6.1C882.5,140.4,885.9,139.7,890.1,139.7z M874.6,170.1
		c4.3-6,7.1-10.6,8.6-13.6c1.4-3,2.1-5.2,2.1-6.4c0-0.3-0.1-0.7-0.2-1.2c-0.2-0.5-0.7-0.7-1.7-0.7c-4,0-7.6,1.3-10.8,3.8
		c-3.3,2.5-6.1,5.5-8.6,8.9c-2.5,3.4-4.6,6.9-6.3,10.4c-1.7,3.5-3.1,6.3-4.1,8.3c1.9,2.4,4.1,3.6,6.4,3.6c1.7,0,4.1-1.3,7.1-3.8
		C870.2,176.9,872.7,173.8,874.6,170.1z"/>
</g>
</svg>
