<svg width="20" height="20" viewBox="0 0 20 20" fill="none" xmlns="http://www.w3.org/2000/svg">
<path d="M10 4.8804C7.17706 4.8804 4.88037 7.17707 4.88037 10C4.88037 12.823 7.17703 15.1197 10 15.1197C12.823 15.1197 15.1196 12.823 15.1196 10C15.1196 7.17704 12.8229 4.8804 10 4.8804Z" class="primary-fill"/>
<path d="M8.96064 3.83261H11.0395C11.2039 3.83261 11.3452 3.76395 11.4272 3.64427C11.5091 3.5246 11.5219 3.36803 11.4624 3.21467L10.3187 0.269834C10.2275 0.0350631 10.0799 3.05176e-05 10.0001 3.05176e-05C9.92019 3.05176e-05 9.7726 0.0350958 9.68146 0.269801L8.53766 3.2147C8.47815 3.36803 8.49103 3.52457 8.57292 3.64427C8.65485 3.76398 8.79619 3.83261 8.96064 3.83261Z" class="primary-fill"/>
<path d="M11.0394 16.1674H8.96061C8.79616 16.1674 8.65482 16.2361 8.57292 16.3558C8.49103 16.4755 8.47815 16.632 8.53766 16.7853L9.68143 19.7302C9.77257 19.9649 9.92015 19.9999 10 19.9999C10.0799 19.9999 10.2275 19.9649 10.3186 19.7302L11.4624 16.7853C11.5219 16.632 11.5091 16.4755 11.4271 16.3558C11.3452 16.2361 11.2039 16.1674 11.0394 16.1674Z" class="primary-fill"/>
<path d="M4.16798 6.23607C4.2468 6.41506 4.39765 6.52189 4.57151 6.52189C4.69059 6.52189 4.80866 6.46934 4.90399 6.37398L6.37396 4.90405C6.49024 4.78777 6.54161 4.63928 6.51488 4.49666C6.48811 4.35411 6.38651 4.23431 6.23605 4.16803L3.34497 2.89441C3.27199 2.86229 3.20327 2.84598 3.14072 2.84598C3.03611 2.84598 2.94598 2.89222 2.8934 2.97284C2.84905 3.04085 2.8132 3.16065 2.89441 3.34503L4.16798 6.23607Z" class="primary-fill"/>
<path d="M15.8319 13.764C15.7531 13.585 15.6022 13.4781 15.4284 13.4781C15.3093 13.4781 15.1912 13.5307 15.0958 13.6261L13.6259 15.096C13.5096 15.2123 13.4582 15.3608 13.485 15.5034C13.5117 15.6459 13.6134 15.7657 13.7638 15.832L16.6548 17.1056C16.7278 17.1378 16.7965 17.1541 16.8591 17.1541C16.9637 17.1541 17.0538 17.1078 17.1064 17.0272C17.1508 16.9591 17.1866 16.8394 17.1054 16.655L15.8319 13.764Z" class="primary-fill"/>
<path d="M15.096 6.37398C15.1913 6.46934 15.3094 6.52189 15.4285 6.52189C15.6024 6.52189 15.7532 6.41506 15.8321 6.23607L17.1057 3.34506C17.1869 3.16065 17.1511 3.04088 17.1067 2.97287C17.0541 2.89225 16.964 2.84601 16.8594 2.84601C16.7968 2.84601 16.7281 2.86232 16.6551 2.89447L13.764 4.168C13.6136 4.23431 13.5119 4.35408 13.4852 4.49666C13.4585 4.63924 13.5098 4.78777 13.6261 4.90404L15.096 6.37398Z" class="primary-fill"/>
<path d="M4.90407 13.6261C4.80871 13.5307 4.6906 13.4781 4.57149 13.4781C4.39766 13.4781 4.24685 13.585 4.16802 13.764L2.89443 16.655C2.81319 16.8394 2.84904 16.9591 2.89342 17.0272C2.946 17.1078 3.03617 17.154 3.14074 17.154C3.20329 17.154 3.27201 17.1377 3.34502 17.1055L6.23606 15.832C6.38651 15.7657 6.48818 15.6459 6.51488 15.5033C6.54161 15.3608 6.49027 15.2123 6.37397 15.0959L4.90407 13.6261Z" class="primary-fill"/>
<path d="M19.7303 9.68137L16.7855 8.53771C16.722 8.51303 16.6581 8.50055 16.5957 8.50055C16.3476 8.50055 16.1675 8.69405 16.1675 8.96061L16.1675 11.0395C16.1675 11.306 16.3476 11.4995 16.5957 11.4995C16.6582 11.4995 16.7221 11.487 16.7855 11.4624L19.7303 10.3187C19.965 10.2275 20.0001 10.0799 20.0001 9.99999C20.0001 9.92016 19.9649 9.77251 19.7303 9.68137Z" class="primary-fill"/>
<path d="M3.40434 11.4995C3.65251 11.4995 3.83264 11.306 3.83264 11.0395V8.96059C3.83264 8.69402 3.65254 8.50052 3.40434 8.50052C3.34186 8.50052 3.27807 8.513 3.21464 8.53764L0.269771 9.68138C0.0350653 9.77252 0 9.9201 0 10C0 10.0799 0.0350326 10.2275 0.269771 10.3187L3.21457 11.4624C3.27803 11.487 3.34186 11.4995 3.40434 11.4995Z" class="primary-fill"/>
</svg>
