<svg width="24" height="24" viewBox="0 0 24 24" fill="none" xmlns="http://www.w3.org/2000/svg">
<path d="M19.8322 17.1556L15.6787 15.2452C15.287 15.0648 15.0435 14.7024 15.0435 14.2992V12.9468C15.143 12.8348 15.2478 12.7072 15.3561 12.5664C15.8948 11.8664 16.3265 11.0872 16.6404 10.2468C17.2539 9.988 17.6522 9.43 17.6522 8.8V7.2C17.6522 6.8148 17.4957 6.4416 17.2174 6.15V4.0224C17.2417 3.8024 17.3374 2.4928 16.3078 1.4124C15.4148 0.4752 13.9657 0 12 0C10.0343 0 8.58522 0.4752 7.69217 1.412C6.66261 2.4924 6.75826 3.8024 6.78261 4.0224V6.15C6.50435 6.4416 6.34783 6.8148 6.34783 7.2V8.8C6.34783 9.2868 6.58826 9.7408 6.9987 10.0436C7.39696 11.4944 8.23043 12.5876 8.52174 12.9384V14.262C8.52174 14.6492 8.29217 15.0044 7.92304 15.19L4.04435 17.1364C2.78304 17.7696 2 18.9832 2 20.3048V21.6C2 23.4984 8.5413 24 12 24C15.4587 24 22 23.4984 22 21.6V20.3828C22 19.0076 21.1691 17.7708 19.8322 17.1556Z" class="primary-fill"/>
</svg>
