<svg width="26" height="26" viewBox="0 0 26 26" fill="none" xmlns="http://www.w3.org/2000/svg">
<g clip-path="url(#clip0_365_467)">
<path d="M26 4.93675C25.0434 5.36142 24.0153 5.64742 22.9363 5.77633C24.0381 5.11658 24.8842 4.07117 25.2818 2.82533C24.2515 3.43633 23.1097 3.8805 21.8942 4.11992C20.9224 3.08317 19.5347 2.43533 18.0007 2.43533C14.5567 2.43533 12.0261 5.6485 12.8039 8.98408C8.372 8.762 4.44167 6.63867 1.81025 3.41142C0.41275 5.80883 1.0855 8.94508 3.46017 10.5332C2.587 10.5051 1.76367 10.2657 1.04542 9.86592C0.986917 12.337 2.75817 14.6488 5.3235 15.1634C4.57275 15.3671 3.7505 15.4148 2.91417 15.2544C3.59233 17.3734 5.56183 18.915 7.8975 18.9583C5.655 20.7166 2.82967 21.502 0 21.1683C2.36058 22.6818 5.16533 23.5647 8.177 23.5647C18.0808 23.5647 23.6763 15.2003 23.3382 7.69817C24.3804 6.94525 25.285 6.006 26 4.93675Z" class="primary-fill"/>
</g>
<defs>
<clipPath id="clip0_365_467">
<rect width="26" height="26" fill="white"/>
</clipPath>
</defs>
</svg>
