<svg width="24" height="19" viewBox="0 0 24 19" fill="none" xmlns="http://www.w3.org/2000/svg">
<path d="M8.63248 0.286696C8.63248 0.286696 2.63081 6.2937 0.29335 8.63249C0.0973388 8.82717 0 9.08319 0 9.3392C0 9.59521 0.0973388 9.85123 0.29335 10.0459C2.62948 12.3847 8.62981 18.389 8.62981 18.389C8.82316 18.5824 9.07784 18.6784 9.33252 18.6784C9.5872 18.6771 9.84321 18.5797 10.0392 18.3837C10.4299 17.993 10.4312 17.3623 10.0446 16.9743L3.40952 10.3393H22.9999C23.552 10.3393 24 9.89123 24 9.3392C24 8.78717 23.552 8.33914 22.9999 8.33914H3.40952L10.0472 1.70011C10.4326 1.31475 10.4299 0.685385 10.0392 0.294697C9.84321 0.0986861 9.5872 1.36998e-05 9.33252 1.36998e-05C9.07784 -0.00131971 8.82582 0.0946858 8.63248 0.286696V0.286696Z" class="primary-fill"/>
</svg>
