<svg width="12" height="12" viewBox="0 0 12 12" fill="none" xmlns="http://www.w3.org/2000/svg">
<path d="M10.8411 1.15884C10.5275 0.845246 10.0244 0.845246 9.71085 1.15884L5.99994 4.86975L2.28904 1.15884C1.97544 0.845246 1.47238 0.845246 1.15878 1.15884C0.845185 1.47244 0.845185 1.9755 1.15878 2.2891L4.86969 6L1.15878 9.71091C0.845185 10.0245 0.845185 10.5276 1.15878 10.8412C1.31558 10.998 1.51811 11.0764 1.72718 11.0764C1.93624 11.0764 2.13877 10.998 2.29557 10.8412L6.00648 7.13026L9.71738 10.8412C9.87418 10.998 10.0767 11.0764 10.2858 11.0764C10.4948 11.0764 10.6974 10.998 10.8542 10.8412C11.1678 10.5276 11.1678 10.0245 10.8542 9.71091L7.1302 6L10.8411 2.2891C11.1547 1.9755 11.1547 1.47244 10.8411 1.15884Z" class="primary-fill"/>
</svg>
