<svg width="24" height="24" viewBox="0 0 24 24" fill="none" xmlns="http://www.w3.org/2000/svg">
<path d="M7.14729 1.18216C5.10838 2.35923 3.64977 4.26012 3.04047 6.53421C2.43105 8.8083 2.74392 11.1837 3.92099 13.2226C5.49099 15.9418 8.41838 17.631 11.5611 17.631C12.5534 17.631 13.538 17.4602 14.4714 17.1324L18.4364 24L21.2635 22.3677L17.2992 15.5013C18.6383 14.3556 19.6024 12.836 20.0684 11.0968C20.6777 8.82267 20.3649 6.44737 19.1878 4.40833C17.6179 1.68921 14.6904 0 11.5478 0C10.0085 0 8.48681 0.408723 7.14729 1.18216ZM16.3607 6.04061C17.1019 7.32437 17.2988 8.82006 16.9151 10.2519C16.5315 11.6837 15.6131 12.8805 14.3293 13.6217C13.4855 14.1089 12.5282 14.3664 11.5611 14.3664C9.58109 14.3664 7.73687 13.3027 6.74823 11.5904C6.00705 10.3066 5.81013 8.81105 6.19391 7.37908C6.57756 5.94724 7.49595 4.75046 8.77971 4.00914C9.6234 3.52207 10.5807 3.26456 11.5478 3.26456C13.5279 3.26456 15.372 4.32828 16.3607 6.04061Z" class="primary-fill"/>
</svg>
